<svg width="27" height="27" viewBox="0 0 27 27" fill="none" xmlns="http://www.w3.org/2000/svg">
<path d="M5 24V6.4H9.5C9.5 5.19 9.94063 4.15417 10.8219 3.2925C11.7031 2.43083 12.7625 2 14 2C15.2375 2 16.2969 2.43083 17.1781 3.2925C18.0594 4.15417 18.5 5.19 18.5 6.4H23V24H5ZM11.75 6.4H16.25C16.25 5.795 16.0299 5.27727 15.5896 4.8468C15.1486 4.4156 14.6187 4.2 14 4.2C13.3813 4.2 12.8518 4.4156 12.4115 4.8468C11.9705 5.27727 11.75 5.795 11.75 6.4ZM7.25 21.8H20.75V8.6H18.5V11.9H16.25V8.6H11.75V11.9H9.5V8.6H7.25V21.8ZM7.25 21.8V8.6V21.8Z" fill="#326755"/>
</svg>
