<svg width="24" height="24" viewBox="0 0 24 24" fill="none" xmlns="http://www.w3.org/2000/svg">
<path d="M16.546 11L19.3052 6H7.15858L9.52793 11H16.546Z" fill="#224439"/>
<path d="M16.546 13C17.2958 13 17.9556 12.59 18.2955 11.97L21.8745 5.48C21.9588 5.32843 22.002 5.15747 21.9999 4.98406C21.9978 4.81064 21.9505 4.64077 21.8627 4.49126C21.7748 4.34175 21.6494 4.21778 21.499 4.13162C21.3485 4.04545 21.1781 4.00009 21.0048 4H6.20884L5.2691 2H2V4H3.99945L7.59846 11.59L6.24883 14.03C5.51903 15.37 6.47877 17 7.99835 17H19.995V15H7.99835L9.09805 13H16.546ZM7.15858 6H19.3052L16.546 11H9.52793L7.15858 6ZM7.99835 18C6.89865 18 6.0089 18.9 6.0089 20C6.0089 21.1 6.89865 22 7.99835 22C9.09805 22 9.9978 21.1 9.9978 20C9.9978 18.9 9.09805 18 7.99835 18ZM17.9956 18C16.8959 18 16.0061 18.9 16.0061 20C16.0061 21.1 16.8959 22 17.9956 22C19.0953 22 19.995 21.1 19.995 20C19.995 18.9 19.0953 18 17.9956 18Z" fill="#224439"/>
</svg>
