<svg width="67" height="58" viewBox="0 0 67 58" fill="none" xmlns="http://www.w3.org/2000/svg">
<path d="M48.5502 0C42.7242 0 37.1325 2.56022 33.4829 6.606C29.8332 2.56022 24.2416 0 18.4156 0C8.10286 0 0 7.64905 0 17.3842C0 29.3319 11.3842 39.0671 28.6279 53.8594L33.4829 58L38.3379 53.8278C55.5816 39.0671 66.9658 29.3319 66.9658 17.3842C66.9658 7.64905 58.8629 0 48.5502 0ZM33.8177 49.1499L33.4829 49.466L33.1481 49.1499C17.2102 35.527 6.69658 26.5188 6.69658 17.3842C6.69658 11.0627 11.719 6.32153 18.4156 6.32153C23.5719 6.32153 28.5944 9.45069 30.369 13.7809H36.6303C38.3714 9.45069 43.3938 6.32153 48.5502 6.32153C55.2468 6.32153 60.2692 11.0627 60.2692 17.3842C60.2692 26.5188 49.7556 35.527 33.8177 49.1499Z" fill="#333334"/>
</svg>
