<svg width="67" height="57" viewBox="0 0 67 57" fill="none" xmlns="http://www.w3.org/2000/svg">
<path d="M48.5542 0C42.7277 0 37.1356 2.51608 33.4857 6.4921C29.8357 2.51608 24.2436 0 18.4171 0C8.10354 0 0 7.51717 0 17.0845C0 28.8262 11.3851 38.3935 28.6303 52.9308L33.4857 57L38.3411 52.8997C55.5862 38.3935 66.9714 28.8262 66.9714 17.0845C66.9714 7.51717 58.8678 0 48.5542 0ZM33.8205 48.3025L33.4857 48.6131L33.1508 48.3025C17.2116 34.9144 6.69714 26.0616 6.69714 17.0845C6.69714 10.8719 11.72 6.21253 18.4171 6.21253C23.5739 6.21253 28.5968 9.28774 30.3715 13.5433H36.6333C38.3746 9.28774 43.3974 6.21253 48.5542 6.21253C55.2514 6.21253 60.2742 10.8719 60.2742 17.0845C60.2742 26.0616 49.7597 34.9144 33.8205 48.3025Z" fill="#333334"/>
</svg>
